<svg width="24" height="24" viewBox="0 0 24 24" fill="none" xmlns="http://www.w3.org/2000/svg">
<g clip-path="url(#clip0_4_115)">
<path d="M12 0C18.6 0 24 5.4 24 12C24 18.6 18.6 24 12 24C5.4 24 0 18.6 0 12C0 5.4 5.4 0 12 0Z" fill="url(#paint0_linear_4_115)"/>
<path d="M15.525 4.5H8.4C6.225 4.5 4.5 6.3 4.5 8.55V15.45C4.5 17.625 6.225 19.425 8.475 19.5H15.6C17.775 19.5 19.575 17.7 19.575 15.45V8.55C19.5 6.3 17.775 4.5 15.525 4.5ZM18.15 15.375C18.15 16.875 16.95 18.15 15.375 18.15H8.55C7.05 18.15 5.775 16.875 5.85 15.375V8.625C5.85 7.125 7.05 5.85 8.55 5.85H15.375C16.875 5.85 18.15 7.125 18.15 8.625V15.375Z" fill="white"/>
<path d="M12 8.17499C9.90001 8.09999 8.10001 9.82499 8.10001 11.925C8.02501 14.025 9.75001 15.825 11.85 15.825C13.95 15.825 15.75 14.175 15.75 12.075V12C15.825 9.9 14.1 8.17499 12 8.17499ZM12 14.475C10.65 14.475 9.52501 13.425 9.45001 12.075C9.45001 10.725 10.5 9.59999 11.85 9.52499C13.2 9.44999 14.325 10.575 14.4 11.925V12C14.475 13.35 13.35 14.475 12 14.475Z" fill="white"/>
<path d="M15.975 7.04999C16.425 7.04999 16.8 7.42499 16.8 7.94999C16.8 8.47499 16.425 8.84999 15.975 8.84999C15.525 8.84999 15.15 8.47499 15.15 7.94999C15.15 7.42499 15.525 7.04999 15.975 7.04999Z" fill="white"/>
</g>
<defs>
<linearGradient id="paint0_linear_4_115" x1="5.99796" y1="22.3947" x2="18" y2="1.60665" gradientUnits="userSpaceOnUse">
<stop stop-color="#FEC053"/>
<stop offset="0.327" stop-color="#F2203E"/>
<stop offset="0.648" stop-color="#B729A8"/>
<stop offset="1" stop-color="#5342D6"/>
</linearGradient>
<clipPath id="clip0_4_115">
<rect width="24" height="24" fill="white"/>
</clipPath>
</defs>
</svg>
